<?xml version="1.0" encoding="utf-8" standalone="no"?>
<!DOCTYPE svg PUBLIC "-//W3C//DTD SVG 1.1//EN"
  "http://www.w3.org/Graphics/SVG/1.1/DTD/svg11.dtd">
<!-- Created with matplotlib (http://matplotlib.org/) -->
<svg height="441pt" version="1.1" viewBox="0 0 585 441" width="585pt" xmlns="http://www.w3.org/2000/svg" xmlns:xlink="http://www.w3.org/1999/xlink">
 <defs>
  <style type="text/css">
*{stroke-linecap:butt;stroke-linejoin:round;}
  </style>
 </defs>
 <g id="figure_1">
  <g id="patch_1">
   <path d="
M0 441
L585 441
L585 0
L0 0
z
" style="fill:#ffffff;"/>
  </g>
  <g id="axes_1">
   <g id="patch_2">
    <path d="
M73.125 396.9
L526.5 396.9
L526.5 44.1
L73.125 44.1
z
" style="fill:#ffffff;"/>
   </g>
   <g id="LineCollection_1">
    <defs>
     <path d="
M95.7938 -290.913
L95.7938 -290.913" id="C0_0_2ebebc723a"/>
     <path d="
M118.463 -222.264
L118.463 -222.264" id="C0_1_3472e9c00a"/>
     <path d="
M141.131 -176.694
L141.131 -176.694" id="C0_2_7df375d599"/>
     <path d="
M163.8 -149.234
L163.8 -149.234" id="C0_3_f7b16c7fb2"/>
     <path d="
M186.469 -135.093
L186.469 -135.093" id="C0_4_611910d534"/>
     <path d="
M209.138 -125.861
L209.138 -125.861" id="C0_5_f292f31be8"/>
     <path d="
M231.806 -119.158
L231.806 -119.158" id="C0_6_1a6e517a9a"/>
     <path d="
M254.475 -115.454
L254.475 -115.454" id="C0_7_b574202e25"/>
     <path d="
M277.144 -113.308
L277.144 -113.308" id="C0_8_2599df8c67"/>
     <path d="
M299.812 -111.161
L299.812 -111.161" id="C0_9_da885032d3"/>
     <path d="
M322.481 -109.515
L322.481 -109.515" id="C0_a_2421830a92"/>
     <path d="
M345.15 -109.162
L345.15 -109.162" id="C0_b_3b5bcbd295"/>
     <path d="
M367.819 -108.78
L367.819 -108.78" id="C0_c_cfa4100cc3"/>
     <path d="
M390.488 -108.868
L390.488 -108.868" id="C0_d_dcb0d84d36"/>
     <path d="
M413.156 -108.868
L413.156 -108.868" id="C0_e_03a2f32167"/>
     <path d="
M435.825 -108.751
L435.825 -108.751" id="C0_f_5345e7ca4d"/>
     <path d="
M458.494 -108.545
L458.494 -108.545" id="C0_10_2aba50ac41"/>
     <path d="
M481.163 -108.28
L481.163 -108.28" id="C0_11_5e84c1aea2"/>
     <path d="
M503.831 -108.545
L503.831 -108.545" id="C0_12_6219f7c857"/>
     <path d="
M526.5 -108.016
L526.5 -108.016" id="C0_13_6ef75d26ac"/>
    </defs>
    <g clip-path="url(#p5873ec822d)">
     <use style="fill:none;stroke:#0000ff;" x="0.0" xlink:href="#C0_0_2ebebc723a" y="441.0"/>
    </g>
    <g clip-path="url(#p5873ec822d)">
     <use style="fill:none;stroke:#0000ff;" x="0.0" xlink:href="#C0_1_3472e9c00a" y="441.0"/>
    </g>
    <g clip-path="url(#p5873ec822d)">
     <use style="fill:none;stroke:#0000ff;" x="0.0" xlink:href="#C0_2_7df375d599" y="441.0"/>
    </g>
    <g clip-path="url(#p5873ec822d)">
     <use style="fill:none;stroke:#0000ff;" x="0.0" xlink:href="#C0_3_f7b16c7fb2" y="441.0"/>
    </g>
    <g clip-path="url(#p5873ec822d)">
     <use style="fill:none;stroke:#0000ff;" x="0.0" xlink:href="#C0_4_611910d534" y="441.0"/>
    </g>
    <g clip-path="url(#p5873ec822d)">
     <use style="fill:none;stroke:#0000ff;" x="0.0" xlink:href="#C0_5_f292f31be8" y="441.0"/>
    </g>
    <g clip-path="url(#p5873ec822d)">
     <use style="fill:none;stroke:#0000ff;" x="0.0" xlink:href="#C0_6_1a6e517a9a" y="441.0"/>
    </g>
    <g clip-path="url(#p5873ec822d)">
     <use style="fill:none;stroke:#0000ff;" x="0.0" xlink:href="#C0_7_b574202e25" y="441.0"/>
    </g>
    <g clip-path="url(#p5873ec822d)">
     <use style="fill:none;stroke:#0000ff;" x="0.0" xlink:href="#C0_8_2599df8c67" y="441.0"/>
    </g>
    <g clip-path="url(#p5873ec822d)">
     <use style="fill:none;stroke:#0000ff;" x="0.0" xlink:href="#C0_9_da885032d3" y="441.0"/>
    </g>
    <g clip-path="url(#p5873ec822d)">
     <use style="fill:none;stroke:#0000ff;" x="0.0" xlink:href="#C0_a_2421830a92" y="441.0"/>
    </g>
    <g clip-path="url(#p5873ec822d)">
     <use style="fill:none;stroke:#0000ff;" x="0.0" xlink:href="#C0_b_3b5bcbd295" y="441.0"/>
    </g>
    <g clip-path="url(#p5873ec822d)">
     <use style="fill:none;stroke:#0000ff;" x="0.0" xlink:href="#C0_c_cfa4100cc3" y="441.0"/>
    </g>
    <g clip-path="url(#p5873ec822d)">
     <use style="fill:none;stroke:#0000ff;" x="0.0" xlink:href="#C0_d_dcb0d84d36" y="441.0"/>
    </g>
    <g clip-path="url(#p5873ec822d)">
     <use style="fill:none;stroke:#0000ff;" x="0.0" xlink:href="#C0_e_03a2f32167" y="441.0"/>
    </g>
    <g clip-path="url(#p5873ec822d)">
     <use style="fill:none;stroke:#0000ff;" x="0.0" xlink:href="#C0_f_5345e7ca4d" y="441.0"/>
    </g>
    <g clip-path="url(#p5873ec822d)">
     <use style="fill:none;stroke:#0000ff;" x="0.0" xlink:href="#C0_10_2aba50ac41" y="441.0"/>
    </g>
    <g clip-path="url(#p5873ec822d)">
     <use style="fill:none;stroke:#0000ff;" x="0.0" xlink:href="#C0_11_5e84c1aea2" y="441.0"/>
    </g>
    <g clip-path="url(#p5873ec822d)">
     <use style="fill:none;stroke:#0000ff;" x="0.0" xlink:href="#C0_12_6219f7c857" y="441.0"/>
    </g>
    <g clip-path="url(#p5873ec822d)">
     <use style="fill:none;stroke:#0000ff;" x="0.0" xlink:href="#C0_13_6ef75d26ac" y="441.0"/>
    </g>
   </g>
   <g id="LineCollection_2">
    <defs>
     <path d="
M95.7938 -231.327
L95.7938 -350.499" id="C1_0_00cb42929a"/>
     <path d="
M118.463 -134.123
L118.463 -310.405" id="C1_1_d397da4998"/>
     <path d="
M141.131 -89.0526
L141.131 -264.335" id="C1_2_295b37fc8e"/>
     <path d="
M163.8 -92.0149
L163.8 -206.454" id="C1_3_c03aa6af35"/>
     <path d="
M186.469 -83.9737
L186.469 -186.212" id="C1_4_548bf8eddf"/>
     <path d="
M209.138 -82.4261
L209.138 -169.297" id="C1_5_c14e2ef7c5"/>
     <path d="
M231.806 -85.0862
L231.806 -153.23" id="C1_6_b120a92082"/>
     <path d="
M254.475 -90.6487
L254.475 -140.259" id="C1_7_2b8dddddd7"/>
     <path d="
M277.144 -93.9377
L277.144 -132.677" id="C1_8_141d88a8f5"/>
     <path d="
M299.812 -99.2429
L299.812 -123.08" id="C1_9_abac267428"/>
     <path d="
M322.481 -98.0858
L322.481 -120.944" id="C1_a_d93d803f72"/>
     <path d="
M345.15 -97.7753
L345.15 -120.549" id="C1_b_330a2af551"/>
     <path d="
M367.819 -94.6092
L367.819 -122.951" id="C1_c_8aeea88c51"/>
     <path d="
M390.488 -96.4934
L390.488 -121.243" id="C1_d_62301852cb"/>
     <path d="
M413.156 -97.9046
L413.156 -119.832" id="C1_e_b7f1d6d8a5"/>
     <path d="
M435.825 -100.195
L435.825 -117.306" id="C1_f_7a69ef4d11"/>
     <path d="
M458.494 -100.332
L458.494 -116.758" id="C1_10_b6d6119ca5"/>
     <path d="
M481.163 -98.575
L481.163 -117.985" id="C1_11_a359d49727"/>
     <path d="
M503.831 -99.92
L503.831 -117.17" id="C1_12_ffc824f44a"/>
     <path d="
M526.5 -97.9831
L526.5 -118.048" id="C1_13_2c40619ed2"/>
    </defs>
    <g clip-path="url(#p5873ec822d)">
     <use style="fill:none;stroke:#0000ff;" x="0.0" xlink:href="#C1_0_00cb42929a" y="441.0"/>
    </g>
    <g clip-path="url(#p5873ec822d)">
     <use style="fill:none;stroke:#0000ff;" x="0.0" xlink:href="#C1_1_d397da4998" y="441.0"/>
    </g>
    <g clip-path="url(#p5873ec822d)">
     <use style="fill:none;stroke:#0000ff;" x="0.0" xlink:href="#C1_2_295b37fc8e" y="441.0"/>
    </g>
    <g clip-path="url(#p5873ec822d)">
     <use style="fill:none;stroke:#0000ff;" x="0.0" xlink:href="#C1_3_c03aa6af35" y="441.0"/>
    </g>
    <g clip-path="url(#p5873ec822d)">
     <use style="fill:none;stroke:#0000ff;" x="0.0" xlink:href="#C1_4_548bf8eddf" y="441.0"/>
    </g>
    <g clip-path="url(#p5873ec822d)">
     <use style="fill:none;stroke:#0000ff;" x="0.0" xlink:href="#C1_5_c14e2ef7c5" y="441.0"/>
    </g>
    <g clip-path="url(#p5873ec822d)">
     <use style="fill:none;stroke:#0000ff;" x="0.0" xlink:href="#C1_6_b120a92082" y="441.0"/>
    </g>
    <g clip-path="url(#p5873ec822d)">
     <use style="fill:none;stroke:#0000ff;" x="0.0" xlink:href="#C1_7_2b8dddddd7" y="441.0"/>
    </g>
    <g clip-path="url(#p5873ec822d)">
     <use style="fill:none;stroke:#0000ff;" x="0.0" xlink:href="#C1_8_141d88a8f5" y="441.0"/>
    </g>
    <g clip-path="url(#p5873ec822d)">
     <use style="fill:none;stroke:#0000ff;" x="0.0" xlink:href="#C1_9_abac267428" y="441.0"/>
    </g>
    <g clip-path="url(#p5873ec822d)">
     <use style="fill:none;stroke:#0000ff;" x="0.0" xlink:href="#C1_a_d93d803f72" y="441.0"/>
    </g>
    <g clip-path="url(#p5873ec822d)">
     <use style="fill:none;stroke:#0000ff;" x="0.0" xlink:href="#C1_b_330a2af551" y="441.0"/>
    </g>
    <g clip-path="url(#p5873ec822d)">
     <use style="fill:none;stroke:#0000ff;" x="0.0" xlink:href="#C1_c_8aeea88c51" y="441.0"/>
    </g>
    <g clip-path="url(#p5873ec822d)">
     <use style="fill:none;stroke:#0000ff;" x="0.0" xlink:href="#C1_d_62301852cb" y="441.0"/>
    </g>
    <g clip-path="url(#p5873ec822d)">
     <use style="fill:none;stroke:#0000ff;" x="0.0" xlink:href="#C1_e_b7f1d6d8a5" y="441.0"/>
    </g>
    <g clip-path="url(#p5873ec822d)">
     <use style="fill:none;stroke:#0000ff;" x="0.0" xlink:href="#C1_f_7a69ef4d11" y="441.0"/>
    </g>
    <g clip-path="url(#p5873ec822d)">
     <use style="fill:none;stroke:#0000ff;" x="0.0" xlink:href="#C1_10_b6d6119ca5" y="441.0"/>
    </g>
    <g clip-path="url(#p5873ec822d)">
     <use style="fill:none;stroke:#0000ff;" x="0.0" xlink:href="#C1_11_a359d49727" y="441.0"/>
    </g>
    <g clip-path="url(#p5873ec822d)">
     <use style="fill:none;stroke:#0000ff;" x="0.0" xlink:href="#C1_12_ffc824f44a" y="441.0"/>
    </g>
    <g clip-path="url(#p5873ec822d)">
     <use style="fill:none;stroke:#0000ff;" x="0.0" xlink:href="#C1_13_2c40619ed2" y="441.0"/>
    </g>
   </g>
   <g id="line2d_1">
    <defs>
     <path d="
M0 3
L0 -3" id="m3f0d0c4d1b" style="stroke:#0000ff;stroke-width:0.5;"/>
    </defs>
    <g clip-path="url(#p5873ec822d)">
     <use style="fill:#0000ff;stroke:#0000ff;stroke-width:0.5;" x="95.79375" xlink:href="#m3f0d0c4d1b" y="150.087"/>
     <use style="fill:#0000ff;stroke:#0000ff;stroke-width:0.5;" x="118.4625" xlink:href="#m3f0d0c4d1b" y="218.736"/>
     <use style="fill:#0000ff;stroke:#0000ff;stroke-width:0.5;" x="141.13125" xlink:href="#m3f0d0c4d1b" y="264.306"/>
     <use style="fill:#0000ff;stroke:#0000ff;stroke-width:0.5;" x="163.8" xlink:href="#m3f0d0c4d1b" y="291.7656"/>
     <use style="fill:#0000ff;stroke:#0000ff;stroke-width:0.5;" x="186.46875" xlink:href="#m3f0d0c4d1b" y="305.907"/>
     <use style="fill:#0000ff;stroke:#0000ff;stroke-width:0.5;" x="209.1375" xlink:href="#m3f0d0c4d1b" y="315.1386"/>
     <use style="fill:#0000ff;stroke:#0000ff;stroke-width:0.5;" x="231.80625" xlink:href="#m3f0d0c4d1b" y="321.8418"/>
     <use style="fill:#0000ff;stroke:#0000ff;stroke-width:0.5;" x="254.475" xlink:href="#m3f0d0c4d1b" y="325.5462"/>
     <use style="fill:#0000ff;stroke:#0000ff;stroke-width:0.5;" x="277.14375" xlink:href="#m3f0d0c4d1b" y="327.6924"/>
     <use style="fill:#0000ff;stroke:#0000ff;stroke-width:0.5;" x="299.8125" xlink:href="#m3f0d0c4d1b" y="329.8386"/>
     <use style="fill:#0000ff;stroke:#0000ff;stroke-width:0.5;" x="322.48125" xlink:href="#m3f0d0c4d1b" y="331.485"/>
     <use style="fill:#0000ff;stroke:#0000ff;stroke-width:0.5;" x="345.15" xlink:href="#m3f0d0c4d1b" y="331.8378"/>
     <use style="fill:#0000ff;stroke:#0000ff;stroke-width:0.5;" x="367.81875" xlink:href="#m3f0d0c4d1b" y="332.22"/>
     <use style="fill:#0000ff;stroke:#0000ff;stroke-width:0.5;" x="390.4875" xlink:href="#m3f0d0c4d1b" y="332.1318"/>
     <use style="fill:#0000ff;stroke:#0000ff;stroke-width:0.5;" x="413.15625" xlink:href="#m3f0d0c4d1b" y="332.1318"/>
     <use style="fill:#0000ff;stroke:#0000ff;stroke-width:0.5;" x="435.825" xlink:href="#m3f0d0c4d1b" y="332.2494"/>
     <use style="fill:#0000ff;stroke:#0000ff;stroke-width:0.5;" x="458.49375" xlink:href="#m3f0d0c4d1b" y="332.4552"/>
     <use style="fill:#0000ff;stroke:#0000ff;stroke-width:0.5;" x="481.1625" xlink:href="#m3f0d0c4d1b" y="332.7198"/>
     <use style="fill:#0000ff;stroke:#0000ff;stroke-width:0.5;" x="503.83125" xlink:href="#m3f0d0c4d1b" y="332.4552"/>
     <use style="fill:#0000ff;stroke:#0000ff;stroke-width:0.5;" x="526.5" xlink:href="#m3f0d0c4d1b" y="332.9844"/>
    </g>
   </g>
   <g id="line2d_2">
    <g clip-path="url(#p5873ec822d)">
     <use style="fill:#0000ff;stroke:#0000ff;stroke-width:0.5;" x="95.79375" xlink:href="#m3f0d0c4d1b" y="150.087"/>
     <use style="fill:#0000ff;stroke:#0000ff;stroke-width:0.5;" x="118.4625" xlink:href="#m3f0d0c4d1b" y="218.736"/>
     <use style="fill:#0000ff;stroke:#0000ff;stroke-width:0.5;" x="141.13125" xlink:href="#m3f0d0c4d1b" y="264.306"/>
     <use style="fill:#0000ff;stroke:#0000ff;stroke-width:0.5;" x="163.8" xlink:href="#m3f0d0c4d1b" y="291.7656"/>
     <use style="fill:#0000ff;stroke:#0000ff;stroke-width:0.5;" x="186.46875" xlink:href="#m3f0d0c4d1b" y="305.907"/>
     <use style="fill:#0000ff;stroke:#0000ff;stroke-width:0.5;" x="209.1375" xlink:href="#m3f0d0c4d1b" y="315.1386"/>
     <use style="fill:#0000ff;stroke:#0000ff;stroke-width:0.5;" x="231.80625" xlink:href="#m3f0d0c4d1b" y="321.8418"/>
     <use style="fill:#0000ff;stroke:#0000ff;stroke-width:0.5;" x="254.475" xlink:href="#m3f0d0c4d1b" y="325.5462"/>
     <use style="fill:#0000ff;stroke:#0000ff;stroke-width:0.5;" x="277.14375" xlink:href="#m3f0d0c4d1b" y="327.6924"/>
     <use style="fill:#0000ff;stroke:#0000ff;stroke-width:0.5;" x="299.8125" xlink:href="#m3f0d0c4d1b" y="329.8386"/>
     <use style="fill:#0000ff;stroke:#0000ff;stroke-width:0.5;" x="322.48125" xlink:href="#m3f0d0c4d1b" y="331.485"/>
     <use style="fill:#0000ff;stroke:#0000ff;stroke-width:0.5;" x="345.15" xlink:href="#m3f0d0c4d1b" y="331.8378"/>
     <use style="fill:#0000ff;stroke:#0000ff;stroke-width:0.5;" x="367.81875" xlink:href="#m3f0d0c4d1b" y="332.22"/>
     <use style="fill:#0000ff;stroke:#0000ff;stroke-width:0.5;" x="390.4875" xlink:href="#m3f0d0c4d1b" y="332.1318"/>
     <use style="fill:#0000ff;stroke:#0000ff;stroke-width:0.5;" x="413.15625" xlink:href="#m3f0d0c4d1b" y="332.1318"/>
     <use style="fill:#0000ff;stroke:#0000ff;stroke-width:0.5;" x="435.825" xlink:href="#m3f0d0c4d1b" y="332.2494"/>
     <use style="fill:#0000ff;stroke:#0000ff;stroke-width:0.5;" x="458.49375" xlink:href="#m3f0d0c4d1b" y="332.4552"/>
     <use style="fill:#0000ff;stroke:#0000ff;stroke-width:0.5;" x="481.1625" xlink:href="#m3f0d0c4d1b" y="332.7198"/>
     <use style="fill:#0000ff;stroke:#0000ff;stroke-width:0.5;" x="503.83125" xlink:href="#m3f0d0c4d1b" y="332.4552"/>
     <use style="fill:#0000ff;stroke:#0000ff;stroke-width:0.5;" x="526.5" xlink:href="#m3f0d0c4d1b" y="332.9844"/>
    </g>
   </g>
   <g id="line2d_3">
    <defs>
     <path d="
M3 1.83697e-16
L-3 -1.83697e-16" id="mdde457ef1d" style="stroke:#0000ff;stroke-width:0.5;"/>
    </defs>
    <g clip-path="url(#p5873ec822d)">
     <use style="fill:#0000ff;stroke:#0000ff;stroke-width:0.5;" x="95.79375" xlink:href="#mdde457ef1d" y="209.67345"/>
     <use style="fill:#0000ff;stroke:#0000ff;stroke-width:0.5;" x="118.4625" xlink:href="#mdde457ef1d" y="306.8772"/>
     <use style="fill:#0000ff;stroke:#0000ff;stroke-width:0.5;" x="141.13125" xlink:href="#mdde457ef1d" y="351.9474"/>
     <use style="fill:#0000ff;stroke:#0000ff;stroke-width:0.5;" x="163.8" xlink:href="#mdde457ef1d" y="348.985056"/>
     <use style="fill:#0000ff;stroke:#0000ff;stroke-width:0.5;" x="186.46875" xlink:href="#mdde457ef1d" y="357.02625"/>
     <use style="fill:#0000ff;stroke:#0000ff;stroke-width:0.5;" x="209.1375" xlink:href="#mdde457ef1d" y="358.573866"/>
     <use style="fill:#0000ff;stroke:#0000ff;stroke-width:0.5;" x="231.80625" xlink:href="#mdde457ef1d" y="355.913754"/>
     <use style="fill:#0000ff;stroke:#0000ff;stroke-width:0.5;" x="254.475" xlink:href="#mdde457ef1d" y="350.351274"/>
     <use style="fill:#0000ff;stroke:#0000ff;stroke-width:0.5;" x="277.14375" xlink:href="#mdde457ef1d" y="347.062296"/>
     <use style="fill:#0000ff;stroke:#0000ff;stroke-width:0.5;" x="299.8125" xlink:href="#mdde457ef1d" y="341.757066"/>
     <use style="fill:#0000ff;stroke:#0000ff;stroke-width:0.5;" x="322.48125" xlink:href="#mdde457ef1d" y="342.91425"/>
     <use style="fill:#0000ff;stroke:#0000ff;stroke-width:0.5;" x="345.15" xlink:href="#mdde457ef1d" y="343.224714"/>
     <use style="fill:#0000ff;stroke:#0000ff;stroke-width:0.5;" x="367.81875" xlink:href="#mdde457ef1d" y="346.3908"/>
     <use style="fill:#0000ff;stroke:#0000ff;stroke-width:0.5;" x="390.4875" xlink:href="#mdde457ef1d" y="344.506554"/>
     <use style="fill:#0000ff;stroke:#0000ff;stroke-width:0.5;" x="413.15625" xlink:href="#mdde457ef1d" y="343.095354"/>
     <use style="fill:#0000ff;stroke:#0000ff;stroke-width:0.5;" x="435.825" xlink:href="#mdde457ef1d" y="340.804506"/>
     <use style="fill:#0000ff;stroke:#0000ff;stroke-width:0.5;" x="458.49375" xlink:href="#mdde457ef1d" y="340.668384"/>
     <use style="fill:#0000ff;stroke:#0000ff;stroke-width:0.5;" x="481.1625" xlink:href="#mdde457ef1d" y="342.425034"/>
     <use style="fill:#0000ff;stroke:#0000ff;stroke-width:0.5;" x="503.83125" xlink:href="#mdde457ef1d" y="341.079984"/>
     <use style="fill:#0000ff;stroke:#0000ff;stroke-width:0.5;" x="526.5" xlink:href="#mdde457ef1d" y="343.016856"/>
    </g>
   </g>
   <g id="line2d_4">
    <g clip-path="url(#p5873ec822d)">
     <use style="fill:#0000ff;stroke:#0000ff;stroke-width:0.5;" x="95.79375" xlink:href="#mdde457ef1d" y="90.50055"/>
     <use style="fill:#0000ff;stroke:#0000ff;stroke-width:0.5;" x="118.4625" xlink:href="#mdde457ef1d" y="130.5948"/>
     <use style="fill:#0000ff;stroke:#0000ff;stroke-width:0.5;" x="141.13125" xlink:href="#mdde457ef1d" y="176.6646"/>
     <use style="fill:#0000ff;stroke:#0000ff;stroke-width:0.5;" x="163.8" xlink:href="#mdde457ef1d" y="234.546144"/>
     <use style="fill:#0000ff;stroke:#0000ff;stroke-width:0.5;" x="186.46875" xlink:href="#mdde457ef1d" y="254.78775"/>
     <use style="fill:#0000ff;stroke:#0000ff;stroke-width:0.5;" x="209.1375" xlink:href="#mdde457ef1d" y="271.703334"/>
     <use style="fill:#0000ff;stroke:#0000ff;stroke-width:0.5;" x="231.80625" xlink:href="#mdde457ef1d" y="287.769846"/>
     <use style="fill:#0000ff;stroke:#0000ff;stroke-width:0.5;" x="254.475" xlink:href="#mdde457ef1d" y="300.741126"/>
     <use style="fill:#0000ff;stroke:#0000ff;stroke-width:0.5;" x="277.14375" xlink:href="#mdde457ef1d" y="308.322504"/>
     <use style="fill:#0000ff;stroke:#0000ff;stroke-width:0.5;" x="299.8125" xlink:href="#mdde457ef1d" y="317.920134"/>
     <use style="fill:#0000ff;stroke:#0000ff;stroke-width:0.5;" x="322.48125" xlink:href="#mdde457ef1d" y="320.05575"/>
     <use style="fill:#0000ff;stroke:#0000ff;stroke-width:0.5;" x="345.15" xlink:href="#mdde457ef1d" y="320.450886"/>
     <use style="fill:#0000ff;stroke:#0000ff;stroke-width:0.5;" x="367.81875" xlink:href="#mdde457ef1d" y="318.0492"/>
     <use style="fill:#0000ff;stroke:#0000ff;stroke-width:0.5;" x="390.4875" xlink:href="#mdde457ef1d" y="319.757046"/>
     <use style="fill:#0000ff;stroke:#0000ff;stroke-width:0.5;" x="413.15625" xlink:href="#mdde457ef1d" y="321.168246"/>
     <use style="fill:#0000ff;stroke:#0000ff;stroke-width:0.5;" x="435.825" xlink:href="#mdde457ef1d" y="323.694294"/>
     <use style="fill:#0000ff;stroke:#0000ff;stroke-width:0.5;" x="458.49375" xlink:href="#mdde457ef1d" y="324.242016"/>
     <use style="fill:#0000ff;stroke:#0000ff;stroke-width:0.5;" x="481.1625" xlink:href="#mdde457ef1d" y="323.014566"/>
     <use style="fill:#0000ff;stroke:#0000ff;stroke-width:0.5;" x="503.83125" xlink:href="#mdde457ef1d" y="323.830416"/>
     <use style="fill:#0000ff;stroke:#0000ff;stroke-width:0.5;" x="526.5" xlink:href="#mdde457ef1d" y="322.951944"/>
    </g>
   </g>
   <g id="line2d_5">
    <path clip-path="url(#p5873ec822d)" d="
M95.7938 150.087
L118.463 218.736
L141.131 264.306
L163.8 291.766
L186.469 305.907
L209.138 315.139
L231.806 321.842
L254.475 325.546
L277.144 327.692
L299.812 329.839
L322.481 331.485
L345.15 331.838
L367.819 332.22
L390.488 332.132
L413.156 332.132
L435.825 332.249
L458.494 332.455
L481.163 332.72
L503.831 332.455
L526.5 332.984" style="fill:none;stroke:#0000ff;stroke-linecap:square;"/>
   </g>
   <g id="matplotlib.axis_1">
    <g id="xtick_1">
     <g id="line2d_6">
      <defs>
       <path d="
M0 0
L0 -4" id="m93b0483c22" style="stroke:#000000;stroke-width:0.5;"/>
      </defs>
      <g>
       <use style="stroke:#000000;stroke-width:0.5;" x="73.125" xlink:href="#m93b0483c22" y="396.9"/>
      </g>
     </g>
     <g id="line2d_7">
      <defs>
       <path d="
M0 0
L0 4" id="m741efc42ff" style="stroke:#000000;stroke-width:0.5;"/>
      </defs>
      <g>
       <use style="stroke:#000000;stroke-width:0.5;" x="73.125" xlink:href="#m741efc42ff" y="44.1"/>
      </g>
     </g>
     <g id="text_1">
      <!-- 0 -->
      <defs>
       <path d="
M31.7812 66.4062
Q24.1719 66.4062 20.3281 58.9062
Q16.5 51.4219 16.5 36.375
Q16.5 21.3906 20.3281 13.8906
Q24.1719 6.39062 31.7812 6.39062
Q39.4531 6.39062 43.2812 13.8906
Q47.125 21.3906 47.125 36.375
Q47.125 51.4219 43.2812 58.9062
Q39.4531 66.4062 31.7812 66.4062
M31.7812 74.2188
Q44.0469 74.2188 50.5156 64.5156
Q56.9844 54.8281 56.9844 36.375
Q56.9844 17.9688 50.5156 8.26562
Q44.0469 -1.42188 31.7812 -1.42188
Q19.5312 -1.42188 13.0625 8.26562
Q6.59375 17.9688 6.59375 36.375
Q6.59375 54.8281 13.0625 64.5156
Q19.5312 74.2188 31.7812 74.2188" id="BitstreamVeraSans-Roman-30"/>
      </defs>
      <g transform="translate(70.1015625 410.018125)scale(0.12 -0.12)">
       <use xlink:href="#BitstreamVeraSans-Roman-30"/>
      </g>
     </g>
    </g>
    <g id="xtick_2">
     <g id="line2d_8">
      <g>
       <use style="stroke:#000000;stroke-width:0.5;" x="186.46875" xlink:href="#m93b0483c22" y="396.9"/>
      </g>
     </g>
     <g id="line2d_9">
      <g>
       <use style="stroke:#000000;stroke-width:0.5;" x="186.46875" xlink:href="#m741efc42ff" y="44.1"/>
      </g>
     </g>
     <g id="text_2">
      <!-- 5 -->
      <defs>
       <path d="
M10.7969 72.9062
L49.5156 72.9062
L49.5156 64.5938
L19.8281 64.5938
L19.8281 46.7344
Q21.9688 47.4688 24.1094 47.8281
Q26.2656 48.1875 28.4219 48.1875
Q40.625 48.1875 47.75 41.5
Q54.8906 34.8125 54.8906 23.3906
Q54.8906 11.625 47.5625 5.09375
Q40.2344 -1.42188 26.9062 -1.42188
Q22.3125 -1.42188 17.5469 -0.640625
Q12.7969 0.140625 7.71875 1.70312
L7.71875 11.625
Q12.1094 9.23438 16.7969 8.0625
Q21.4844 6.89062 26.7031 6.89062
Q35.1562 6.89062 40.0781 11.3281
Q45.0156 15.7656 45.0156 23.3906
Q45.0156 31 40.0781 35.4375
Q35.1562 39.8906 26.7031 39.8906
Q22.75 39.8906 18.8125 39.0156
Q14.8906 38.1406 10.7969 36.2812
z
" id="BitstreamVeraSans-Roman-35"/>
      </defs>
      <g transform="translate(183.6384375 410.018125)scale(0.12 -0.12)">
       <use xlink:href="#BitstreamVeraSans-Roman-35"/>
      </g>
     </g>
    </g>
    <g id="xtick_3">
     <g id="line2d_10">
      <g>
       <use style="stroke:#000000;stroke-width:0.5;" x="299.8125" xlink:href="#m93b0483c22" y="396.9"/>
      </g>
     </g>
     <g id="line2d_11">
      <g>
       <use style="stroke:#000000;stroke-width:0.5;" x="299.8125" xlink:href="#m741efc42ff" y="44.1"/>
      </g>
     </g>
     <g id="text_3">
      <!-- 10 -->
      <defs>
       <path d="
M12.4062 8.29688
L28.5156 8.29688
L28.5156 63.9219
L10.9844 60.4062
L10.9844 69.3906
L28.4219 72.9062
L38.2812 72.9062
L38.2812 8.29688
L54.3906 8.29688
L54.3906 0
L12.4062 0
z
" id="BitstreamVeraSans-Roman-31"/>
      </defs>
      <g transform="translate(293.235 410.018125)scale(0.12 -0.12)">
       <use xlink:href="#BitstreamVeraSans-Roman-31"/>
       <use x="63.623046875" xlink:href="#BitstreamVeraSans-Roman-30"/>
      </g>
     </g>
    </g>
    <g id="xtick_4">
     <g id="line2d_12">
      <g>
       <use style="stroke:#000000;stroke-width:0.5;" x="413.15625" xlink:href="#m93b0483c22" y="396.9"/>
      </g>
     </g>
     <g id="line2d_13">
      <g>
       <use style="stroke:#000000;stroke-width:0.5;" x="413.15625" xlink:href="#m741efc42ff" y="44.1"/>
      </g>
     </g>
     <g id="text_4">
      <!-- 15 -->
      <g transform="translate(406.704375 410.018125)scale(0.12 -0.12)">
       <use xlink:href="#BitstreamVeraSans-Roman-31"/>
       <use x="63.623046875" xlink:href="#BitstreamVeraSans-Roman-35"/>
      </g>
     </g>
    </g>
    <g id="xtick_5">
     <g id="line2d_14">
      <g>
       <use style="stroke:#000000;stroke-width:0.5;" x="526.5" xlink:href="#m93b0483c22" y="396.9"/>
      </g>
     </g>
     <g id="line2d_15">
      <g>
       <use style="stroke:#000000;stroke-width:0.5;" x="526.5" xlink:href="#m741efc42ff" y="44.1"/>
      </g>
     </g>
     <g id="text_5">
      <!-- 20 -->
      <defs>
       <path d="
M19.1875 8.29688
L53.6094 8.29688
L53.6094 0
L7.32812 0
L7.32812 8.29688
Q12.9375 14.1094 22.625 23.8906
Q32.3281 33.6875 34.8125 36.5312
Q39.5469 41.8438 41.4219 45.5312
Q43.3125 49.2188 43.3125 52.7812
Q43.3125 58.5938 39.2344 62.25
Q35.1562 65.9219 28.6094 65.9219
Q23.9688 65.9219 18.8125 64.3125
Q13.6719 62.7031 7.8125 59.4219
L7.8125 69.3906
Q13.7656 71.7812 18.9375 73
Q24.125 74.2188 28.4219 74.2188
Q39.75 74.2188 46.4844 68.5469
Q53.2188 62.8906 53.2188 53.4219
Q53.2188 48.9219 51.5312 44.8906
Q49.8594 40.875 45.4062 35.4062
Q44.1875 33.9844 37.6406 27.2188
Q31.1094 20.4531 19.1875 8.29688" id="BitstreamVeraSans-Roman-32"/>
      </defs>
      <g transform="translate(519.703125 410.018125)scale(0.12 -0.12)">
       <use xlink:href="#BitstreamVeraSans-Roman-32"/>
       <use x="63.623046875" xlink:href="#BitstreamVeraSans-Roman-30"/>
      </g>
     </g>
    </g>
    <g id="text_6">
     <!-- Shuffles from Initial Deck -->
     <defs>
      <path id="BitstreamVeraSans-Roman-20"/>
      <path d="
M37.1094 75.9844
L37.1094 68.5
L28.5156 68.5
Q23.6875 68.5 21.7969 66.5469
Q19.9219 64.5938 19.9219 59.5156
L19.9219 54.6875
L34.7188 54.6875
L34.7188 47.7031
L19.9219 47.7031
L19.9219 0
L10.8906 0
L10.8906 47.7031
L2.29688 47.7031
L2.29688 54.6875
L10.8906 54.6875
L10.8906 58.5
Q10.8906 67.625 15.1406 71.7969
Q19.3906 75.9844 28.6094 75.9844
z
" id="BitstreamVeraSans-Roman-66"/>
      <path d="
M54.8906 33.0156
L54.8906 0
L45.9062 0
L45.9062 32.7188
Q45.9062 40.4844 42.875 44.3281
Q39.8438 48.1875 33.7969 48.1875
Q26.5156 48.1875 22.3125 43.5469
Q18.1094 38.9219 18.1094 30.9062
L18.1094 0
L9.07812 0
L9.07812 54.6875
L18.1094 54.6875
L18.1094 46.1875
Q21.3438 51.125 25.7031 53.5625
Q30.0781 56 35.7969 56
Q45.2188 56 50.0469 50.1719
Q54.8906 44.3438 54.8906 33.0156" id="BitstreamVeraSans-Roman-6e"/>
      <path d="
M52 44.1875
Q55.375 50.25 60.0625 53.125
Q64.75 56 71.0938 56
Q79.6406 56 84.2812 50.0156
Q88.9219 44.0469 88.9219 33.0156
L88.9219 0
L79.8906 0
L79.8906 32.7188
Q79.8906 40.5781 77.0938 44.375
Q74.3125 48.1875 68.6094 48.1875
Q61.625 48.1875 57.5625 43.5469
Q53.5156 38.9219 53.5156 30.9062
L53.5156 0
L44.4844 0
L44.4844 32.7188
Q44.4844 40.625 41.7031 44.4062
Q38.9219 48.1875 33.1094 48.1875
Q26.2188 48.1875 22.1562 43.5312
Q18.1094 38.875 18.1094 30.9062
L18.1094 0
L9.07812 0
L9.07812 54.6875
L18.1094 54.6875
L18.1094 46.1875
Q21.1875 51.2188 25.4844 53.6094
Q29.7812 56 35.6875 56
Q41.6562 56 45.8281 52.9688
Q50 49.9531 52 44.1875" id="BitstreamVeraSans-Roman-6d"/>
      <path d="
M30.6094 48.3906
Q23.3906 48.3906 19.1875 42.75
Q14.9844 37.1094 14.9844 27.2969
Q14.9844 17.4844 19.1562 11.8438
Q23.3438 6.20312 30.6094 6.20312
Q37.7969 6.20312 41.9844 11.8594
Q46.1875 17.5312 46.1875 27.2969
Q46.1875 37.0156 41.9844 42.7031
Q37.7969 48.3906 30.6094 48.3906
M30.6094 56
Q42.3281 56 49.0156 48.375
Q55.7188 40.7656 55.7188 27.2969
Q55.7188 13.875 49.0156 6.21875
Q42.3281 -1.42188 30.6094 -1.42188
Q18.8438 -1.42188 12.1719 6.21875
Q5.51562 13.875 5.51562 27.2969
Q5.51562 40.7656 12.1719 48.375
Q18.8438 56 30.6094 56" id="BitstreamVeraSans-Roman-6f"/>
      <path d="
M9.42188 75.9844
L18.4062 75.9844
L18.4062 0
L9.42188 0
z
" id="BitstreamVeraSans-Roman-6c"/>
      <path d="
M9.07812 75.9844
L18.1094 75.9844
L18.1094 31.1094
L44.9219 54.6875
L56.3906 54.6875
L27.3906 29.1094
L57.625 0
L45.9062 0
L18.1094 26.7031
L18.1094 0
L9.07812 0
z
" id="BitstreamVeraSans-Roman-6b"/>
      <path d="
M19.6719 64.7969
L19.6719 8.10938
L31.5938 8.10938
Q46.6875 8.10938 53.6875 14.9375
Q60.6875 21.7812 60.6875 36.5312
Q60.6875 51.1719 53.6875 57.9844
Q46.6875 64.7969 31.5938 64.7969
z

M9.8125 72.9062
L30.0781 72.9062
Q51.2656 72.9062 61.1719 64.0938
Q71.0938 55.2812 71.0938 36.5312
Q71.0938 17.6719 61.125 8.82812
Q51.1719 0 30.0781 0
L9.8125 0
z
" id="BitstreamVeraSans-Roman-44"/>
      <path d="
M34.2812 27.4844
Q23.3906 27.4844 19.1875 25
Q14.9844 22.5156 14.9844 16.5
Q14.9844 11.7188 18.1406 8.90625
Q21.2969 6.10938 26.7031 6.10938
Q34.1875 6.10938 38.7031 11.4062
Q43.2188 16.7031 43.2188 25.4844
L43.2188 27.4844
z

M52.2031 31.2031
L52.2031 0
L43.2188 0
L43.2188 8.29688
Q40.1406 3.32812 35.5469 0.953125
Q30.9531 -1.42188 24.3125 -1.42188
Q15.9219 -1.42188 10.9531 3.29688
Q6 8.01562 6 15.9219
Q6 25.1406 12.1719 29.8281
Q18.3594 34.5156 30.6094 34.5156
L43.2188 34.5156
L43.2188 35.4062
Q43.2188 41.6094 39.1406 45
Q35.0625 48.3906 27.6875 48.3906
Q23 48.3906 18.5469 47.2656
Q14.1094 46.1406 10.0156 43.8906
L10.0156 52.2031
Q14.9375 54.1094 19.5781 55.0469
Q24.2188 56 28.6094 56
Q40.4844 56 46.3438 49.8438
Q52.2031 43.7031 52.2031 31.2031" id="BitstreamVeraSans-Roman-61"/>
      <path d="
M53.5156 70.5156
L53.5156 60.8906
Q47.9062 63.5781 42.9219 64.8906
Q37.9375 66.2188 33.2969 66.2188
Q25.25 66.2188 20.875 63.0938
Q16.5 59.9688 16.5 54.2031
Q16.5 49.3594 19.4062 46.8906
Q22.3125 44.4375 30.4219 42.9219
L36.375 41.7031
Q47.4062 39.5938 52.6562 34.2969
Q57.9062 29 57.9062 20.125
Q57.9062 9.51562 50.7969 4.04688
Q43.7031 -1.42188 29.9844 -1.42188
Q24.8125 -1.42188 18.9688 -0.25
Q13.1406 0.921875 6.89062 3.21875
L6.89062 13.375
Q12.8906 10.0156 18.6562 8.29688
Q24.4219 6.59375 29.9844 6.59375
Q38.4219 6.59375 43.0156 9.90625
Q47.6094 13.2344 47.6094 19.3906
Q47.6094 24.75 44.3125 27.7812
Q41.0156 30.8125 33.5 32.3281
L27.4844 33.5
Q16.4531 35.6875 11.5156 40.375
Q6.59375 45.0625 6.59375 53.4219
Q6.59375 63.0938 13.4062 68.6562
Q20.2188 74.2188 32.1719 74.2188
Q37.3125 74.2188 42.625 73.2812
Q47.9531 72.3594 53.5156 70.5156" id="BitstreamVeraSans-Roman-53"/>
      <path d="
M9.42188 54.6875
L18.4062 54.6875
L18.4062 0
L9.42188 0
z

M9.42188 75.9844
L18.4062 75.9844
L18.4062 64.5938
L9.42188 64.5938
z
" id="BitstreamVeraSans-Roman-69"/>
      <path d="
M54.8906 33.0156
L54.8906 0
L45.9062 0
L45.9062 32.7188
Q45.9062 40.4844 42.875 44.3281
Q39.8438 48.1875 33.7969 48.1875
Q26.5156 48.1875 22.3125 43.5469
Q18.1094 38.9219 18.1094 30.9062
L18.1094 0
L9.07812 0
L9.07812 75.9844
L18.1094 75.9844
L18.1094 46.1875
Q21.3438 51.125 25.7031 53.5625
Q30.0781 56 35.7969 56
Q45.2188 56 50.0469 50.1719
Q54.8906 44.3438 54.8906 33.0156" id="BitstreamVeraSans-Roman-68"/>
      <path d="
M48.7812 52.5938
L48.7812 44.1875
Q44.9688 46.2969 41.1406 47.3438
Q37.3125 48.3906 33.4062 48.3906
Q24.6562 48.3906 19.8125 42.8438
Q14.9844 37.3125 14.9844 27.2969
Q14.9844 17.2812 19.8125 11.7344
Q24.6562 6.20312 33.4062 6.20312
Q37.3125 6.20312 41.1406 7.25
Q44.9688 8.29688 48.7812 10.4062
L48.7812 2.09375
Q45.0156 0.34375 40.9844 -0.53125
Q36.9688 -1.42188 32.4219 -1.42188
Q20.0625 -1.42188 12.7812 6.34375
Q5.51562 14.1094 5.51562 27.2969
Q5.51562 40.6719 12.8594 48.3281
Q20.2188 56 33.0156 56
Q37.1562 56 41.1094 55.1406
Q45.0625 54.2969 48.7812 52.5938" id="BitstreamVeraSans-Roman-63"/>
      <path d="
M56.2031 29.5938
L56.2031 25.2031
L14.8906 25.2031
Q15.4844 15.9219 20.4844 11.0625
Q25.4844 6.20312 34.4219 6.20312
Q39.5938 6.20312 44.4531 7.46875
Q49.3125 8.73438 54.1094 11.2812
L54.1094 2.78125
Q49.2656 0.734375 44.1875 -0.34375
Q39.1094 -1.42188 33.8906 -1.42188
Q20.7969 -1.42188 13.1562 6.1875
Q5.51562 13.8125 5.51562 26.8125
Q5.51562 40.2344 12.7656 48.1094
Q20.0156 56 32.3281 56
Q43.3594 56 49.7812 48.8906
Q56.2031 41.7969 56.2031 29.5938
M47.2188 32.2344
Q47.125 39.5938 43.0938 43.9844
Q39.0625 48.3906 32.4219 48.3906
Q24.9062 48.3906 20.3906 44.1406
Q15.875 39.8906 15.1875 32.1719
z
" id="BitstreamVeraSans-Roman-65"/>
      <path d="
M18.3125 70.2188
L18.3125 54.6875
L36.8125 54.6875
L36.8125 47.7031
L18.3125 47.7031
L18.3125 18.0156
Q18.3125 11.3281 20.1406 9.42188
Q21.9688 7.51562 27.5938 7.51562
L36.8125 7.51562
L36.8125 0
L27.5938 0
Q17.1875 0 13.2344 3.875
Q9.28125 7.76562 9.28125 18.0156
L9.28125 47.7031
L2.6875 47.7031
L2.6875 54.6875
L9.28125 54.6875
L9.28125 70.2188
z
" id="BitstreamVeraSans-Roman-74"/>
      <path d="
M8.5 21.5781
L8.5 54.6875
L17.4844 54.6875
L17.4844 21.9219
Q17.4844 14.1562 20.5 10.2656
Q23.5312 6.39062 29.5938 6.39062
Q36.8594 6.39062 41.0781 11.0312
Q45.3125 15.6719 45.3125 23.6875
L45.3125 54.6875
L54.2969 54.6875
L54.2969 0
L45.3125 0
L45.3125 8.40625
Q42.0469 3.42188 37.7188 1
Q33.4062 -1.42188 27.6875 -1.42188
Q18.2656 -1.42188 13.375 4.4375
Q8.5 10.2969 8.5 21.5781" id="BitstreamVeraSans-Roman-75"/>
      <path d="
M41.1094 46.2969
Q39.5938 47.1719 37.8125 47.5781
Q36.0312 48 33.8906 48
Q26.2656 48 22.1875 43.0469
Q18.1094 38.0938 18.1094 28.8125
L18.1094 0
L9.07812 0
L9.07812 54.6875
L18.1094 54.6875
L18.1094 46.1875
Q20.9531 51.1719 25.4844 53.5781
Q30.0312 56 36.5312 56
Q37.4531 56 38.5781 55.875
Q39.7031 55.7656 41.0625 55.5156
z
" id="BitstreamVeraSans-Roman-72"/>
      <path d="
M44.2812 53.0781
L44.2812 44.5781
Q40.4844 46.5312 36.375 47.5
Q32.2812 48.4844 27.875 48.4844
Q21.1875 48.4844 17.8438 46.4375
Q14.5 44.3906 14.5 40.2812
Q14.5 37.1562 16.8906 35.375
Q19.2812 33.5938 26.5156 31.9844
L29.5938 31.2969
Q39.1562 29.25 43.1875 25.5156
Q47.2188 21.7812 47.2188 15.0938
Q47.2188 7.46875 41.1875 3.01562
Q35.1562 -1.42188 24.6094 -1.42188
Q20.2188 -1.42188 15.4531 -0.5625
Q10.6875 0.296875 5.42188 2
L5.42188 11.2812
Q10.4062 8.6875 15.2344 7.39062
Q20.0625 6.10938 24.8125 6.10938
Q31.1562 6.10938 34.5625 8.28125
Q37.9844 10.4531 37.9844 14.4062
Q37.9844 18.0625 35.5156 20.0156
Q33.0625 21.9688 24.7031 23.7812
L21.5781 24.5156
Q13.2344 26.2656 9.51562 29.9062
Q5.8125 33.5469 5.8125 39.8906
Q5.8125 47.6094 11.2812 51.7969
Q16.75 56 26.8125 56
Q31.7812 56 36.1719 55.2656
Q40.5781 54.5469 44.2812 53.0781" id="BitstreamVeraSans-Roman-73"/>
      <path d="
M9.8125 72.9062
L19.6719 72.9062
L19.6719 0
L9.8125 0
z
" id="BitstreamVeraSans-Roman-49"/>
     </defs>
     <g transform="translate(224.3390625 426.631875)scale(0.12 -0.12)">
      <use xlink:href="#BitstreamVeraSans-Roman-53"/>
      <use x="63.4765625" xlink:href="#BitstreamVeraSans-Roman-68"/>
      <use x="126.85546875" xlink:href="#BitstreamVeraSans-Roman-75"/>
      <use x="190.234375" xlink:href="#BitstreamVeraSans-Roman-66"/>
      <use x="225.439453125" xlink:href="#BitstreamVeraSans-Roman-66"/>
      <use x="260.64453125" xlink:href="#BitstreamVeraSans-Roman-6c"/>
      <use x="288.427734375" xlink:href="#BitstreamVeraSans-Roman-65"/>
      <use x="349.951171875" xlink:href="#BitstreamVeraSans-Roman-73"/>
      <use x="402.05078125" xlink:href="#BitstreamVeraSans-Roman-20"/>
      <use x="433.837890625" xlink:href="#BitstreamVeraSans-Roman-66"/>
      <use x="469.04296875" xlink:href="#BitstreamVeraSans-Roman-72"/>
      <use x="507.90625" xlink:href="#BitstreamVeraSans-Roman-6f"/>
      <use x="569.087890625" xlink:href="#BitstreamVeraSans-Roman-6d"/>
      <use x="666.5" xlink:href="#BitstreamVeraSans-Roman-20"/>
      <use x="698.287109375" xlink:href="#BitstreamVeraSans-Roman-49"/>
      <use x="727.779296875" xlink:href="#BitstreamVeraSans-Roman-6e"/>
      <use x="791.158203125" xlink:href="#BitstreamVeraSans-Roman-69"/>
      <use x="818.94140625" xlink:href="#BitstreamVeraSans-Roman-74"/>
      <use x="858.150390625" xlink:href="#BitstreamVeraSans-Roman-69"/>
      <use x="885.93359375" xlink:href="#BitstreamVeraSans-Roman-61"/>
      <use x="947.212890625" xlink:href="#BitstreamVeraSans-Roman-6c"/>
      <use x="974.99609375" xlink:href="#BitstreamVeraSans-Roman-20"/>
      <use x="1006.78320312" xlink:href="#BitstreamVeraSans-Roman-44"/>
      <use x="1083.78515625" xlink:href="#BitstreamVeraSans-Roman-65"/>
      <use x="1145.30859375" xlink:href="#BitstreamVeraSans-Roman-63"/>
      <use x="1200.2890625" xlink:href="#BitstreamVeraSans-Roman-6b"/>
     </g>
    </g>
   </g>
   <g id="matplotlib.axis_2">
    <g id="ytick_1">
     <g id="line2d_16">
      <defs>
       <path d="
M0 0
L4 0" id="m728421d6d4" style="stroke:#000000;stroke-width:0.5;"/>
      </defs>
      <g>
       <use style="stroke:#000000;stroke-width:0.5;" x="73.125" xlink:href="#m728421d6d4" y="396.9"/>
      </g>
     </g>
     <g id="line2d_17">
      <defs>
       <path d="
M0 0
L-4 0" id="mcb0005524f" style="stroke:#000000;stroke-width:0.5;"/>
      </defs>
      <g>
       <use style="stroke:#000000;stroke-width:0.5;" x="526.5" xlink:href="#mcb0005524f" y="396.9"/>
      </g>
     </g>
     <g id="text_7">
      <!-- −20 -->
      <defs>
       <path d="
M10.5938 35.5
L73.1875 35.5
L73.1875 27.2031
L10.5938 27.2031
z
" id="BitstreamVeraSans-Roman-2212"/>
      </defs>
      <g transform="translate(45.8675 400.21125)scale(0.12 -0.12)">
       <use xlink:href="#BitstreamVeraSans-Roman-2212"/>
       <use x="83.7890625" xlink:href="#BitstreamVeraSans-Roman-32"/>
       <use x="147.412109375" xlink:href="#BitstreamVeraSans-Roman-30"/>
      </g>
     </g>
    </g>
    <g id="ytick_2">
     <g id="line2d_18">
      <g>
       <use style="stroke:#000000;stroke-width:0.5;" x="73.125" xlink:href="#m728421d6d4" y="338.1"/>
      </g>
     </g>
     <g id="line2d_19">
      <g>
       <use style="stroke:#000000;stroke-width:0.5;" x="526.5" xlink:href="#mcb0005524f" y="338.1"/>
      </g>
     </g>
     <g id="text_8">
      <!-- 0 -->
      <g transform="translate(63.078125 341.41125)scale(0.12 -0.12)">
       <use xlink:href="#BitstreamVeraSans-Roman-30"/>
      </g>
     </g>
    </g>
    <g id="ytick_3">
     <g id="line2d_20">
      <g>
       <use style="stroke:#000000;stroke-width:0.5;" x="73.125" xlink:href="#m728421d6d4" y="279.3"/>
      </g>
     </g>
     <g id="line2d_21">
      <g>
       <use style="stroke:#000000;stroke-width:0.5;" x="526.5" xlink:href="#mcb0005524f" y="279.3"/>
      </g>
     </g>
     <g id="text_9">
      <!-- 20 -->
      <g transform="translate(55.53125 282.61125)scale(0.12 -0.12)">
       <use xlink:href="#BitstreamVeraSans-Roman-32"/>
       <use x="63.623046875" xlink:href="#BitstreamVeraSans-Roman-30"/>
      </g>
     </g>
    </g>
    <g id="ytick_4">
     <g id="line2d_22">
      <g>
       <use style="stroke:#000000;stroke-width:0.5;" x="73.125" xlink:href="#m728421d6d4" y="220.5"/>
      </g>
     </g>
     <g id="line2d_23">
      <g>
       <use style="stroke:#000000;stroke-width:0.5;" x="526.5" xlink:href="#mcb0005524f" y="220.5"/>
      </g>
     </g>
     <g id="text_10">
      <!-- 40 -->
      <defs>
       <path d="
M37.7969 64.3125
L12.8906 25.3906
L37.7969 25.3906
z

M35.2031 72.9062
L47.6094 72.9062
L47.6094 25.3906
L58.0156 25.3906
L58.0156 17.1875
L47.6094 17.1875
L47.6094 0
L37.7969 0
L37.7969 17.1875
L4.89062 17.1875
L4.89062 26.7031
z
" id="BitstreamVeraSans-Roman-34"/>
      </defs>
      <g transform="translate(55.23875 223.81125)scale(0.12 -0.12)">
       <use xlink:href="#BitstreamVeraSans-Roman-34"/>
       <use x="63.623046875" xlink:href="#BitstreamVeraSans-Roman-30"/>
      </g>
     </g>
    </g>
    <g id="ytick_5">
     <g id="line2d_24">
      <g>
       <use style="stroke:#000000;stroke-width:0.5;" x="73.125" xlink:href="#m728421d6d4" y="161.7"/>
      </g>
     </g>
     <g id="line2d_25">
      <g>
       <use style="stroke:#000000;stroke-width:0.5;" x="526.5" xlink:href="#mcb0005524f" y="161.7"/>
      </g>
     </g>
     <g id="text_11">
      <!-- 60 -->
      <defs>
       <path d="
M33.0156 40.375
Q26.375 40.375 22.4844 35.8281
Q18.6094 31.2969 18.6094 23.3906
Q18.6094 15.5312 22.4844 10.9531
Q26.375 6.39062 33.0156 6.39062
Q39.6562 6.39062 43.5312 10.9531
Q47.4062 15.5312 47.4062 23.3906
Q47.4062 31.2969 43.5312 35.8281
Q39.6562 40.375 33.0156 40.375
M52.5938 71.2969
L52.5938 62.3125
Q48.875 64.0625 45.0938 64.9844
Q41.3125 65.9219 37.5938 65.9219
Q27.8281 65.9219 22.6719 59.3281
Q17.5312 52.7344 16.7969 39.4062
Q19.6719 43.6562 24.0156 45.9219
Q28.375 48.1875 33.5938 48.1875
Q44.5781 48.1875 50.9531 41.5156
Q57.3281 34.8594 57.3281 23.3906
Q57.3281 12.1562 50.6875 5.35938
Q44.0469 -1.42188 33.0156 -1.42188
Q20.3594 -1.42188 13.6719 8.26562
Q6.98438 17.9688 6.98438 36.375
Q6.98438 53.6562 15.1875 63.9375
Q23.3906 74.2188 37.2031 74.2188
Q40.9219 74.2188 44.7031 73.4844
Q48.4844 72.75 52.5938 71.2969" id="BitstreamVeraSans-Roman-36"/>
      </defs>
      <g transform="translate(55.49 165.01125)scale(0.12 -0.12)">
       <use xlink:href="#BitstreamVeraSans-Roman-36"/>
       <use x="63.623046875" xlink:href="#BitstreamVeraSans-Roman-30"/>
      </g>
     </g>
    </g>
    <g id="ytick_6">
     <g id="line2d_26">
      <g>
       <use style="stroke:#000000;stroke-width:0.5;" x="73.125" xlink:href="#m728421d6d4" y="102.9"/>
      </g>
     </g>
     <g id="line2d_27">
      <g>
       <use style="stroke:#000000;stroke-width:0.5;" x="526.5" xlink:href="#mcb0005524f" y="102.9"/>
      </g>
     </g>
     <g id="text_12">
      <!-- 80 -->
      <defs>
       <path d="
M31.7812 34.625
Q24.75 34.625 20.7188 30.8594
Q16.7031 27.0938 16.7031 20.5156
Q16.7031 13.9219 20.7188 10.1562
Q24.75 6.39062 31.7812 6.39062
Q38.8125 6.39062 42.8594 10.1719
Q46.9219 13.9688 46.9219 20.5156
Q46.9219 27.0938 42.8906 30.8594
Q38.875 34.625 31.7812 34.625
M21.9219 38.8125
Q15.5781 40.375 12.0312 44.7188
Q8.5 49.0781 8.5 55.3281
Q8.5 64.0625 14.7188 69.1406
Q20.9531 74.2188 31.7812 74.2188
Q42.6719 74.2188 48.875 69.1406
Q55.0781 64.0625 55.0781 55.3281
Q55.0781 49.0781 51.5312 44.7188
Q48 40.375 41.7031 38.8125
Q48.8281 37.1562 52.7969 32.3125
Q56.7812 27.4844 56.7812 20.5156
Q56.7812 9.90625 50.3125 4.23438
Q43.8438 -1.42188 31.7812 -1.42188
Q19.7344 -1.42188 13.25 4.23438
Q6.78125 9.90625 6.78125 20.5156
Q6.78125 27.4844 10.7812 32.3125
Q14.7969 37.1562 21.9219 38.8125
M18.3125 54.3906
Q18.3125 48.7344 21.8438 45.5625
Q25.3906 42.3906 31.7812 42.3906
Q38.1406 42.3906 41.7188 45.5625
Q45.3125 48.7344 45.3125 54.3906
Q45.3125 60.0625 41.7188 63.2344
Q38.1406 66.4062 31.7812 66.4062
Q25.3906 66.4062 21.8438 63.2344
Q18.3125 60.0625 18.3125 54.3906" id="BitstreamVeraSans-Roman-38"/>
      </defs>
      <g transform="translate(55.465625 106.21125)scale(0.12 -0.12)">
       <use xlink:href="#BitstreamVeraSans-Roman-38"/>
       <use x="63.623046875" xlink:href="#BitstreamVeraSans-Roman-30"/>
      </g>
     </g>
    </g>
    <g id="ytick_7">
     <g id="line2d_28">
      <g>
       <use style="stroke:#000000;stroke-width:0.5;" x="73.125" xlink:href="#m728421d6d4" y="44.1"/>
      </g>
     </g>
     <g id="line2d_29">
      <g>
       <use style="stroke:#000000;stroke-width:0.5;" x="526.5" xlink:href="#mcb0005524f" y="44.1"/>
      </g>
     </g>
     <g id="text_13">
      <!-- 100 -->
      <g transform="translate(48.335 47.41125)scale(0.12 -0.12)">
       <use xlink:href="#BitstreamVeraSans-Roman-31"/>
       <use x="63.623046875" xlink:href="#BitstreamVeraSans-Roman-30"/>
       <use x="127.24609375" xlink:href="#BitstreamVeraSans-Roman-30"/>
      </g>
     </g>
    </g>
    <g id="text_14">
     <!-- Number of Pattern Matching Similarities -->
     <defs>
      <path d="
M19.6719 64.7969
L19.6719 37.4062
L32.0781 37.4062
Q38.9688 37.4062 42.7188 40.9688
Q46.4844 44.5312 46.4844 51.125
Q46.4844 57.6719 42.7188 61.2344
Q38.9688 64.7969 32.0781 64.7969
z

M9.8125 72.9062
L32.0781 72.9062
Q44.3438 72.9062 50.6094 67.3594
Q56.8906 61.8125 56.8906 51.125
Q56.8906 40.3281 50.6094 34.8125
Q44.3438 29.2969 32.0781 29.2969
L19.6719 29.2969
L19.6719 0
L9.8125 0
z
" id="BitstreamVeraSans-Roman-50"/>
      <path d="
M9.8125 72.9062
L23.0938 72.9062
L55.4219 11.9219
L55.4219 72.9062
L64.9844 72.9062
L64.9844 0
L51.7031 0
L19.3906 60.9844
L19.3906 0
L9.8125 0
z
" id="BitstreamVeraSans-Roman-4e"/>
      <path d="
M9.8125 72.9062
L24.5156 72.9062
L43.1094 23.2969
L61.8125 72.9062
L76.5156 72.9062
L76.5156 0
L66.8906 0
L66.8906 64.0156
L48.0938 14.0156
L38.1875 14.0156
L19.3906 64.0156
L19.3906 0
L9.8125 0
z
" id="BitstreamVeraSans-Roman-4d"/>
      <path d="
M45.4062 27.9844
Q45.4062 37.75 41.375 43.1094
Q37.3594 48.4844 30.0781 48.4844
Q22.8594 48.4844 18.8281 43.1094
Q14.7969 37.75 14.7969 27.9844
Q14.7969 18.2656 18.8281 12.8906
Q22.8594 7.51562 30.0781 7.51562
Q37.3594 7.51562 41.375 12.8906
Q45.4062 18.2656 45.4062 27.9844
M54.3906 6.78125
Q54.3906 -7.17188 48.1875 -13.9844
Q42 -20.7969 29.2031 -20.7969
Q24.4688 -20.7969 20.2656 -20.0938
Q16.0625 -19.3906 12.1094 -17.9219
L12.1094 -9.1875
Q16.0625 -11.3281 19.9219 -12.3438
Q23.7812 -13.375 27.7812 -13.375
Q36.625 -13.375 41.0156 -8.76562
Q45.4062 -4.15625 45.4062 5.17188
L45.4062 9.625
Q42.625 4.78125 38.2812 2.39062
Q33.9375 0 27.875 0
Q17.8281 0 11.6719 7.65625
Q5.51562 15.3281 5.51562 27.9844
Q5.51562 40.6719 11.6719 48.3281
Q17.8281 56 27.875 56
Q33.9375 56 38.2812 53.6094
Q42.625 51.2188 45.4062 46.3906
L45.4062 54.6875
L54.3906 54.6875
z
" id="BitstreamVeraSans-Roman-67"/>
      <path d="
M48.6875 27.2969
Q48.6875 37.2031 44.6094 42.8438
Q40.5312 48.4844 33.4062 48.4844
Q26.2656 48.4844 22.1875 42.8438
Q18.1094 37.2031 18.1094 27.2969
Q18.1094 17.3906 22.1875 11.75
Q26.2656 6.10938 33.4062 6.10938
Q40.5312 6.10938 44.6094 11.75
Q48.6875 17.3906 48.6875 27.2969
M18.1094 46.3906
Q20.9531 51.2656 25.2656 53.625
Q29.5938 56 35.5938 56
Q45.5625 56 51.7812 48.0938
Q58.0156 40.1875 58.0156 27.2969
Q58.0156 14.4062 51.7812 6.48438
Q45.5625 -1.42188 35.5938 -1.42188
Q29.5938 -1.42188 25.2656 0.953125
Q20.9531 3.32812 18.1094 8.20312
L18.1094 0
L9.07812 0
L9.07812 75.9844
L18.1094 75.9844
z
" id="BitstreamVeraSans-Roman-62"/>
     </defs>
     <g transform="translate(38.371875 340.1934375)rotate(-90.0)scale(0.12 -0.12)">
      <use xlink:href="#BitstreamVeraSans-Roman-4e"/>
      <use x="74.8046875" xlink:href="#BitstreamVeraSans-Roman-75"/>
      <use x="138.18359375" xlink:href="#BitstreamVeraSans-Roman-6d"/>
      <use x="235.595703125" xlink:href="#BitstreamVeraSans-Roman-62"/>
      <use x="299.072265625" xlink:href="#BitstreamVeraSans-Roman-65"/>
      <use x="360.595703125" xlink:href="#BitstreamVeraSans-Roman-72"/>
      <use x="401.708984375" xlink:href="#BitstreamVeraSans-Roman-20"/>
      <use x="433.49609375" xlink:href="#BitstreamVeraSans-Roman-6f"/>
      <use x="494.677734375" xlink:href="#BitstreamVeraSans-Roman-66"/>
      <use x="529.8828125" xlink:href="#BitstreamVeraSans-Roman-20"/>
      <use x="561.669921875" xlink:href="#BitstreamVeraSans-Roman-50"/>
      <use x="617.47265625" xlink:href="#BitstreamVeraSans-Roman-61"/>
      <use x="678.751953125" xlink:href="#BitstreamVeraSans-Roman-74"/>
      <use x="717.9609375" xlink:href="#BitstreamVeraSans-Roman-74"/>
      <use x="757.169921875" xlink:href="#BitstreamVeraSans-Roman-65"/>
      <use x="818.693359375" xlink:href="#BitstreamVeraSans-Roman-72"/>
      <use x="858.056640625" xlink:href="#BitstreamVeraSans-Roman-6e"/>
      <use x="921.435546875" xlink:href="#BitstreamVeraSans-Roman-20"/>
      <use x="953.22265625" xlink:href="#BitstreamVeraSans-Roman-4d"/>
      <use x="1039.50195312" xlink:href="#BitstreamVeraSans-Roman-61"/>
      <use x="1100.78125" xlink:href="#BitstreamVeraSans-Roman-74"/>
      <use x="1139.99023438" xlink:href="#BitstreamVeraSans-Roman-63"/>
      <use x="1194.97070312" xlink:href="#BitstreamVeraSans-Roman-68"/>
      <use x="1258.34960938" xlink:href="#BitstreamVeraSans-Roman-69"/>
      <use x="1286.1328125" xlink:href="#BitstreamVeraSans-Roman-6e"/>
      <use x="1349.51171875" xlink:href="#BitstreamVeraSans-Roman-67"/>
      <use x="1412.98828125" xlink:href="#BitstreamVeraSans-Roman-20"/>
      <use x="1444.77539062" xlink:href="#BitstreamVeraSans-Roman-53"/>
      <use x="1508.25195312" xlink:href="#BitstreamVeraSans-Roman-69"/>
      <use x="1536.03515625" xlink:href="#BitstreamVeraSans-Roman-6d"/>
      <use x="1633.44726562" xlink:href="#BitstreamVeraSans-Roman-69"/>
      <use x="1661.23046875" xlink:href="#BitstreamVeraSans-Roman-6c"/>
      <use x="1689.01367188" xlink:href="#BitstreamVeraSans-Roman-61"/>
      <use x="1750.29296875" xlink:href="#BitstreamVeraSans-Roman-72"/>
      <use x="1791.40625" xlink:href="#BitstreamVeraSans-Roman-69"/>
      <use x="1819.18945312" xlink:href="#BitstreamVeraSans-Roman-74"/>
      <use x="1858.3984375" xlink:href="#BitstreamVeraSans-Roman-69"/>
      <use x="1886.18164062" xlink:href="#BitstreamVeraSans-Roman-65"/>
      <use x="1947.70507812" xlink:href="#BitstreamVeraSans-Roman-73"/>
     </g>
    </g>
   </g>
   <g id="patch_3">
    <path d="
M73.125 44.1
L526.5 44.1" style="fill:none;stroke:#000000;"/>
   </g>
   <g id="patch_4">
    <path d="
M526.5 396.9
L526.5 44.1" style="fill:none;stroke:#000000;"/>
   </g>
   <g id="patch_5">
    <path d="
M73.125 396.9
L526.5 396.9" style="fill:none;stroke:#000000;"/>
   </g>
   <g id="patch_6">
    <path d="
M73.125 396.9
L73.125 44.1" style="fill:none;stroke:#000000;"/>
   </g>
   <g id="text_15">
    <!-- Shuffle Pattern Evolution -->
    <defs>
     <path d="
M2.98438 54.6875
L12.5 54.6875
L29.5938 8.79688
L46.6875 54.6875
L56.2031 54.6875
L35.6875 0
L23.4844 0
z
" id="BitstreamVeraSans-Roman-76"/>
     <path d="
M9.8125 72.9062
L55.9062 72.9062
L55.9062 64.5938
L19.6719 64.5938
L19.6719 43.0156
L54.3906 43.0156
L54.3906 34.7188
L19.6719 34.7188
L19.6719 8.29688
L56.7812 8.29688
L56.7812 0
L9.8125 0
z
" id="BitstreamVeraSans-Roman-45"/>
    </defs>
    <g transform="translate(211.177125 39.1)scale(0.144 -0.144)">
     <use xlink:href="#BitstreamVeraSans-Roman-53"/>
     <use x="63.4765625" xlink:href="#BitstreamVeraSans-Roman-68"/>
     <use x="126.85546875" xlink:href="#BitstreamVeraSans-Roman-75"/>
     <use x="190.234375" xlink:href="#BitstreamVeraSans-Roman-66"/>
     <use x="225.439453125" xlink:href="#BitstreamVeraSans-Roman-66"/>
     <use x="260.64453125" xlink:href="#BitstreamVeraSans-Roman-6c"/>
     <use x="288.427734375" xlink:href="#BitstreamVeraSans-Roman-65"/>
     <use x="349.951171875" xlink:href="#BitstreamVeraSans-Roman-20"/>
     <use x="381.73828125" xlink:href="#BitstreamVeraSans-Roman-50"/>
     <use x="437.541015625" xlink:href="#BitstreamVeraSans-Roman-61"/>
     <use x="498.8203125" xlink:href="#BitstreamVeraSans-Roman-74"/>
     <use x="538.029296875" xlink:href="#BitstreamVeraSans-Roman-74"/>
     <use x="577.23828125" xlink:href="#BitstreamVeraSans-Roman-65"/>
     <use x="638.76171875" xlink:href="#BitstreamVeraSans-Roman-72"/>
     <use x="678.125" xlink:href="#BitstreamVeraSans-Roman-6e"/>
     <use x="741.50390625" xlink:href="#BitstreamVeraSans-Roman-20"/>
     <use x="773.291015625" xlink:href="#BitstreamVeraSans-Roman-45"/>
     <use x="836.474609375" xlink:href="#BitstreamVeraSans-Roman-76"/>
     <use x="895.654296875" xlink:href="#BitstreamVeraSans-Roman-6f"/>
     <use x="956.8359375" xlink:href="#BitstreamVeraSans-Roman-6c"/>
     <use x="984.619140625" xlink:href="#BitstreamVeraSans-Roman-75"/>
     <use x="1047.99804688" xlink:href="#BitstreamVeraSans-Roman-74"/>
     <use x="1087.20703125" xlink:href="#BitstreamVeraSans-Roman-69"/>
     <use x="1114.99023438" xlink:href="#BitstreamVeraSans-Roman-6f"/>
     <use x="1176.171875" xlink:href="#BitstreamVeraSans-Roman-6e"/>
    </g>
   </g>
  </g>
 </g>
 <defs>
  <clipPath id="p5873ec822d">
   <rect height="352.8" width="453.375" x="73.125" y="44.1"/>
  </clipPath>
 </defs>
</svg>
